<svg id="Capa_1" data-name="Capa 1" xmlns="http://www.w3.org/2000/svg" xmlns:xlink="http://www.w3.org/1999/xlink" viewBox="0 0 984.15 389.81"><defs><style>.cls-1{fill:#fd0002;}.cls-2{fill:url(#linear-gradient);}.cls-3{fill:url(#linear-gradient-2);}.cls-4{fill:#01375b;}.cls-5{fill:#00385b;}.cls-6{fill:url(#linear-gradient-3);}.cls-7{fill:#fe0000;}.cls-8{font-size:37.58px;fill:#05365f;font-family:Arial-Black, Arial;font-weight:800;}.cls-9{letter-spacing:-0.03em;}.cls-10{letter-spacing:0em;}</style><linearGradient id="linear-gradient" x1="376.9" y1="187.19" x2="435.37" y2="187.19" gradientUnits="userSpaceOnUse"><stop offset="0" stop-color="#231f20"/><stop offset="0.5" stop-color="#bcbec0"/><stop offset="1" stop-color="#939598"/></linearGradient><linearGradient id="linear-gradient-2" x1="49.17" y1="182.04" x2="286.25" y2="182.04" gradientUnits="userSpaceOnUse"><stop offset="0" stop-color="#03002a"/><stop offset="0.52" stop-color="#005d7f"/><stop offset="1" stop-color="#00566a"/></linearGradient><linearGradient id="linear-gradient-3" x1="798.49" y1="185.99" x2="878.94" y2="185.99" xlink:href="#linear-gradient"/></defs><polygon class="cls-1" points="902.97 256.56 927.8 212.51 913.12 260.03 943.28 250.42 915.25 266.71 959.03 288.33 910.98 275.78 918.99 305.42 904.3 279.25 878.94 322.77 895.23 274.98 865.33 285.39 893.36 269.11 853.85 249.89 897.36 260.03 888.29 229.06 902.97 256.56"/><path class="cls-2" d="M435.37,118.45v30.7c-12.28,5.74-13.89,18.55-14.42,38.31,1,25.64,4.66,35.59,14.42,37.51v31c-34.18-2.94-57.71-25.16-58.47-70.22C380.1,140.34,402.75,121.9,435.37,118.45Z"/><path class="cls-3" d="M279.3,84.33l6.95-23.49L258,43.75,240.33,60.84A67.69,67.69,0,0,0,219.5,56l-5.87-24.56h-32l-5.87,24a52.75,52.75,0,0,0-19.22,5.87L136.21,43.21,109,61.37l5.87,23a59.22,59.22,0,0,0-13.88,15L78,91.8,59.85,121.17l16.56,18.16a62.83,62.83,0,0,0-4.28,18.15l-23,8v33.64L72.67,205c-.11,6.79,1.64,13.94,4.8,21.36L59.32,242.91l14.95,29.37,23.49-5.88a68.6,68.6,0,0,0,14.95,15L109,304.85l26.16,16,18.15-16.56a74.57,74.57,0,0,0,19.76,4.81l7.47,23.49H213.1l6.4-24.56a57.77,57.77,0,0,0,18.69-3.74l19.22,17.62,28.84-17.08-6.95-23.5c-105.89,52.69-173-40.87-170.23-105C110.76,106.58,189.42,34.32,279.3,84.33Z"/><rect class="cls-4" x="184.01" y="120.58" width="41.11" height="133.22"/><polygon class="cls-5" points="248.35 253.94 279.59 253.94 279.59 169.84 328.18 253.94 360.21 253.94 360.21 120.45 327.64 120.45 327.64 189.86 285.98 120.45 248.35 120.45 248.35 253.94"/><path class="cls-5" d="M443.24,148.61V118.18q56.6,5.13,59.8,65.55c1.34,48.71-24.6,68.67-59.8,71.94V225.24c13.62-1.07,18.67-14.71,16.82-39.52C460.8,167.82,458.91,150.56,443.24,148.61Z"/><polyline class="cls-5" points="503.09 120.85 552.17 120.85 572.46 155.56 594.35 120.85 628.52 120.85 591.14 181.72 634.39 252.2 588.48 252.2 562.85 211.09 539.89 252.2 503.09 252.2 544.69 186.53"/><path class="cls-5" d="M712.35,159.55l32.57-10.68c-16.14-29.67-55.66-41.5-87-23.5-23.5,14.35-23.5,42.82-13.87,56.62,11.08,14.23,27.39,16.64,55.52,24,13.34,2.94,12.28,14.95,3.2,16-19.22,4-30.17,0-34.71-14.42a172.76,172.76,0,0,1-19.09,4.13s-5.47,1-16.79,2.81c-.95,12.41,18.8,44.85,62.58,39.85,52.33,1.37,76.71-62.32,27.77-82.56-8.37-5.42-50.1-3.81-44.86-18.69C679.07,142.74,707.81,143.53,712.35,159.55Z"/><polygon class="cls-6" points="836.94 119.43 878.94 252.56 836.94 252.56 829.82 225.5 798.49 225.5 804.9 197.38 822.34 197.38 812.38 159.29 823.41 119.43 836.94 119.43"/><polygon class="cls-5" points="823.41 119.43 795.11 119.43 754 252.56 786.84 252.56 823.41 119.43"/><rect class="cls-7" x="309.22" y="263.77" width="573.16" height="9.61"/><text class="cls-8" transform="translate(314.72 314.37) scale(0.94 1)">SO<tspan class="cls-9" x="58.44" y="0">L</tspan><tspan class="cls-10" x="82.53" y="0">UCIONES INDUSTRIALES</tspan></text></svg>