<svg id="Capa_1" data-name="Capa 1" xmlns="http://www.w3.org/2000/svg" viewBox="0 0 1468 530"><defs><style>.cls-1{fill:#fff;}</style></defs><path class="cls-1" d="M446.62,376.58c2.21,8.79,4.34,17.62,6.69,26.39,1,3.63-.09,6-3.14,8A299.38,299.38,0,0,1,419.05,429c-2.19,1.09-3.92,1.33-5.8-.59-4.2-4.27-9.09-7.87-12.63-12.77-4.32-6-10.1-7.78-17.11-6.25-5.67,1.24-10.91,4.12-16.87,4.34-2.39.08-2.58,2.36-3,4.06-1.64,6.62-3.17,13.26-4.7,19.9-1.88,8.17-3.65,9.59-11.85,9.56-10.16,0-20.33-.16-30.48.07-4.32.09-6.38-1.71-7.35-5.72-1.86-7.75-4.08-15.43-5.87-23.2-.75-3.24-2.45-4.71-5.6-5.4-6-1.32-12-2.9-17.89-4.54a7.31,7.31,0,0,0-7.72,1.91c-4.78,4.63-9.73,9.09-13.9,14.33-3.77,4.73-7.37,5.86-12.67,3.34-10.7-5.08-20.48-11.75-30.43-18.13-2.4-1.54-2.08-3.83-1.73-6.24,1.16-7.77,4.2-15,6-22.65,1.05-4.45.22-7.5-3.47-10.4a56.32,56.32,0,0,1-9.39-9.63c-3.14-4-6.75-4.78-11.4-3.53-6.58,1.76-13.31,3-19.83,4.95-4.88,1.46-7.84-.05-10.4-4.19-5.88-9.48-11.41-19.14-16.75-28.94-1.73-3.18-1.33-5.42,1.24-7.9,5.16-5,9.9-10.38,15.17-15.2,4.27-3.92,5.35-8,3.17-13.37-1.93-4.75-3.87-9.51-4-14.83-.11-3.43-2.62-5.32-5.93-5.71-8.16-1-15.51-5.05-23.67-5.93-2.56-.28-3.73-1.88-4.15-4.27-2.17-12.59-1.45-25.24-.27-37.84.41-4.32,3.52-7,7.86-8,5.18-1.16,10.44-2,15.52-3.55,6.75-2,10.31-6.66,12.34-13.63,3.47-11.86,1.31-20.72-8.62-28.94-11.93-9.89-11.31-10.56-4-24.53,3.77-7.25,8.16-14.11,12.61-21,2.75-4.23,6.13-5.71,11-3.55,6.74,3,14.11,3.81,21.1,6,2.8.86,4.82-.07,6.55-2.24a55.07,55.07,0,0,1,10.4-10c5.37-4,5.42-9.57,4.14-15.36-1.37-6.16-4-12-5-18.27-.68-4.28.3-7.24,4.23-9.59,9.56-5.73,19-11.58,29.08-16.5,3.59-1.75,6.16-1.34,8.85,1.5C261.24,62.37,267,68,272.5,73.73c2.22,2.32,4.43,3.07,7.52,1.57a52.49,52.49,0,0,1,15.33-4.25c5.27-.78,8.44-3.73,9-9.11.76-7.52,4.86-14.15,5.65-21.67.22-2.16,1.63-2.9,3.72-3.26a137.77,137.77,0,0,1,37.34-.72c3.93.41,6.27,2.81,7.22,6.59,1.65,6.62,3.53,13.18,4.85,19.86.94,4.71,3.23,7.25,8,8.13,5.88,1.08,11.79,2.19,17.23,4.88,2.58,1.28,4.38,0,6.15-1.75,5.65-5.66,11.52-11.1,17-16.92,3-3.18,5.72-3.75,9.65-1.79,10.15,5.06,19.76,11,29.37,17,3.19,2,4.06,4.57,3.17,8.06-1.81,7.09-3.5,14.21-5.31,21.3-1.3,5.07-2.27,5.62-6.85,3.18a168.6,168.6,0,0,0-48.39-16.71c-29.42-5.54-57.63-1.1-84.92,10.49-45.36,19.27-74.7,53.36-89,99.81-13,42.1-6.49,82.93,14.6,121,20.36,36.81,51.82,61,92.11,72.55,38.54,11.06,76.12,6.82,112-11.21,2.53-1.27,5-2.68,7.48-4A4.51,4.51,0,0,1,446.62,376.58Z"/><path class="cls-1" d="M422.47,229.5c-1.2,1.69-.61,3.55-.62,5.27,0,33.14-.12,66.28.1,99.42,0,4.61-1.42,5.6-5.67,5.41-7.48-.33-15-.32-22.48,0-3.47.15-4-1-4-4.13.11-26,.06-52,.06-77.94,0-28.48.08-57-.09-85.43,0-3.74.85-4.82,4.66-4.65,7.65.34,15.34.4,23,0,4.49-.24,6.83,1.5,9.07,5.19q31.56,52,63.48,103.83c.9,1.47,1.45,3.29,3.22,4.28,1.53-1.74.84-3.64.84-5.34,0-34.14.11-68.28-.08-102.42,0-4.47,1.23-5.73,5.61-5.53,7.48.36,15,.23,22.48,0,2.89-.08,4.07.4,4.06,3.71q-.17,82.44,0,164.87c0,2.95-1,3.55-3.7,3.5-8.83-.18-17.66-.21-26.49,0-3.24.08-5.08-1-6.78-3.79Q457.47,284.37,425.6,233.1C424.8,231.81,424.53,229.92,422.47,229.5Z"/><path class="cls-1" d="M1239,337.18a34.52,34.52,0,0,1,14.23,1.63c8.7,2.79,17.59,5,26.37,7.56,4.39,1.29,4.59-.69,3.58-4.06-2.25-7.49-4.44-15-6.65-22.49-.51-1.73-1.32-3.42-.38-6.3,5.61,10.23,10.88,19.82,16.47,30,10-18,19.79-35.52,30-53.75.79,2.45.1,3.84-.32,5.33-4.45,15.69-10.41,30.88-15.59,46.33-.57,1.7-2,3.61-.53,5.16s3.74.76,5.63.1c6.43-2.26,12.85-4.56,19.28-6.85,2-.72,4-1.48,7.09-.33l-24.43,13.3c-1.56.85-3.8,1.29-3.76,3.52,0,2.51,2.59,2.06,4.11,2.82l45.44,23c.59.3,1.21.53,1.41,1.43-19.29-4.06-38-9.58-57.52-13.54,1.13,10.48,5.39,19.75,7.84,30.1a6.57,6.57,0,0,1-4.5-4c-3-6.1-7.06-11.67-9.15-18.23-.52-1.64-1.31-3.38-3.06-3.64-2.19-.33-2.29,2-3.06,3.33q-12.21,20.91-24.37,41.84c-.55.94-.81,2.23-2.33,2.5-1.09-1.1.11-2.09.37-2.9,4.9-15.37,9.92-30.71,14.92-46,.4-1.23,1.41-2.49.28-3.7-1.33-1.43-2.74-.29-4.12.16-8.07,2.65-16.14,5.26-24.2,7.9-1.26.42-2.47,1.09-4.17.33,4.63-4.21,10.93-5.65,16.31-10.82H496.79c-2,0-4,0-6-.08-6-.35-8-2.6-7.55-8.61.25-3.17,1.48-5.48,5.26-5.15,1.16.1,2.33,0,3.5,0q380.12.09,760.22.13c2.89,0,6,.79,9.06-1.45-7.1-5.18-15.44-7.47-22.48-12.1A1.55,1.55,0,0,1,1239,337.18Z"/><path class="cls-1" d="M987,342.48c-11.23.16-22.28-1.06-32.88-4.87-21.09-7.58-32.33-23.51-37-44.69-1.95-8.79-1.78-8.94,7-10,6.93-.83,13.91-1.23,20.83-2.07,3.18-.39,4.18.71,5,3.77,6.82,26.81,39.68,38.46,61.61,22,7.4-5.56,10.61-13.9,8.46-21.8-1.49-5.47-5.43-8.64-10.28-10.83-11-5-22.85-6.86-34.39-9.92-10.29-2.72-20.58-5.6-29.82-11-15.58-9.18-24.12-22.89-23.67-41.08.45-18,9-32,25.27-39.45,24.31-11.18,49.53-11.07,74.06-.74,18.22,7.68,26.6,23.2,28.88,42.35.35,2.89-.87,3.77-3.62,3.86-9.14.29-18.28.73-27.41,1.23-2.41.13-3.41-.62-4-3.12-3.65-15.13-12.09-21.65-27.73-22-8.92-.22-17.69.25-25.5,5.18-9.86,6.23-9.86,17.81.09,24,6.68,4.19,14.34,6,21.89,8,12.19,3.21,24.57,5.77,36.4,10.28,25.23,9.61,36.74,27.31,34.74,53.45-1.64,21.45-18.12,39.13-41.62,44.63A110.67,110.67,0,0,1,987,342.48Z"/><path class="cls-1" d="M905.74,339.49c-13.83,0-26.58,0-39.34,0-2.24,0-3.1-1.63-4.1-3.16-11.18-17.13-22.45-34.2-33.47-51.43-2.29-3.57-3.47-3-5.46,0-11.07,17-22.29,33.91-33.31,51a7,7,0,0,1-6.88,3.67c-10.65-.2-21.31-.05-32-.1-1.25,0-3,.89-3.65-.63-.61-1.31.89-2.33,1.57-3.36,17.77-26.76,35.48-53.55,53.47-80.16,2.63-3.89,2.74-6.62.16-10.5-16.1-24.25-32-48.64-47.92-73-.72-1.09-2.25-2.17-1.71-3.41.73-1.68,2.66-.84,4.08-.85,10.32,0,20.65.09,31-.09,3.06-.05,4.74,1,6.39,3.6,9.65,14.95,19.6,29.72,29.27,44.66,2.82,4.36,4,1.26,5.41-.83,9.49-14.26,19-28.5,28.29-42.87,2.1-3.24,4.3-4.76,8.4-4.61,10,.36,20,.11,30,.12,1.13,0,2.56-.58,3.27.56.9,1.43-.6,2.38-1.27,3.4-15.84,24.2-31.6,48.47-47.7,72.5-2.92,4.37-2.93,7.34,0,11.7C868.66,283.18,886.81,310.86,905.74,339.49Z"/><path class="cls-1" d="M657.26,329a4.17,4.17,0,0,0,0-.5c-1.17-9.84.09-17.22,11.67-21.22,10.86-3.76,16.7-14.07,20.06-24.84,5.82-18.65,7.63-37.49,0-56.21-5.52-13.53-13.62-24.75-27.7-30.54-2.92-1.21-4.26-3.34-4.2-6.62.13-7.32.26-14.66-.05-22-.17-4,1.45-4.21,4.7-3.68,34,5.52,55.5,25.55,65.07,57.85,10.46,35.33,5.35,68.67-17.86,98-12.13,15.34-28.9,23-48.22,25.38-2.82.35-3.83-.15-3.64-3.17.25-4.15.06-8.33.06-12.49Z"/><path class="cls-1" d="M634,178.77c2.68,11.07-1.78,17-11.93,22.53-14.47,7.86-21.27,22.25-24.2,38.38-3.57,19.65,1.74,37.6,10.31,54.86,3.54,7.12,10,11.46,17.22,14.51,8.12,3.45,8.51,3.79,8.55,12.35,0,6.16-.16,12.33.12,18.48.17,3.7-1.31,4.6-4.66,4.23-18.49-2-34.11-9.74-46.31-23.82-14.36-16.57-21.09-36-22.47-57.88-1.44-23,2.76-44.3,14.65-64s29.35-31.32,52-35.13c6.2-1,6.7-.5,6.7,6C634,172.44,634,175.61,634,178.77Z"/><path class="cls-1" d="M321.45,253.34c0-27,.07-54-.09-80.92,0-3.87.83-5.15,4.91-5,8.14.37,16.33.34,24.47,0,4.12-.16,5.41,1,5.37,5.2-.2,22.81-.09,45.62-.09,68.44q0,45.45,0,90.91c0,9.06.85,7.42-7.24,7.49-7.66.06-15.32-.18-23,.09-3.47.13-4.45-.78-4.43-4.33C321.51,308,321.44,280.65,321.45,253.34Z"/><path class="cls-1" d="M752,402.6c0-4.76.23-9.54-.06-14.29-.28-4.45,2.77-3.12,5-3.21,2.35-.09,5-.88,4.84,3.38-.29,8.31,0,16.64-.17,25,0,1.85,1.62,5.14-1.47,5.4-3.27.27-7.25,1.92-9.88-2.3-3.24-5.2-6.86-10.17-10.8-16-1.09,5.45-.75,10.19-.48,14.83.24,4.09-2.08,3.8-4.63,3.62-2.35-.16-5.45,1.28-5.26-3.46.32-8.14,0-16.31.17-24.46,0-2-1.56-5.44,1.54-5.82,3.4-.43,7.48-1.81,10.11,2.81,2.94,5.17,6.62,9.92,10,14.86Z"/><path class="cls-1" d="M1083.93,404.53c5.19,3.38,7,9,9.91,14.53-3.39,0-6.18-.15-8.94,0-2.2.15-3.28-.84-4.2-2.67-1.43-2.81-3.07-5.52-4.7-8.22-.93-1.52-2.33-2.57-4.16-2s-.79,2.27-.94,3.45a14.34,14.34,0,0,0,0,4c.67,4.26-.72,5.67-5.29,5.58-4.21-.08-5.27-1.17-5.1-5.28.35-8.3.28-16.63,0-24.94-.11-3.42,1.09-4.17,4.22-4,5,.24,10-.05,15,.09,6.63.19,10.13,2.5,11.2,7.1C1092.18,397.64,1090.16,401.26,1083.93,404.53Z"/><path class="cls-1" d="M883.19,401.71c0,4.78-.17,9.57,0,14.35.21,4.6-3.1,2.76-5.13,2.93s-4.67,1-4.54-3c.26-8.64,0-17.29.17-25.92,0-1.62-1.62-4.7,1.53-4.77s6.67-1.9,9.13,1.74a127.73,127.73,0,0,0,12.05,15.83c0-4.84.21-9.68-.06-14.5s3.21-3,5.4-3.21,4.51-.65,4.37,3.24c-.31,8.46,0,16.95-.17,25.42,0,1.73,1.3,4.85-1.23,5-3.27.22-7.26,2.05-9.93-2.08-3.39-5.25-7-10.35-10.59-15.51Z"/><path class="cls-1" d="M769.09,401.9c0-4.67.09-9.33,0-14-.06-2.17.69-2.9,2.86-2.87,7.49.09,15,.18,22.48,0,3.8-.11,2.67,2.41,2.8,4.33s.4,4-2.84,3.79c-4-.25-8-.06-12-.06-1.51,0-3.07-.23-3,2.16.09,2.1,1.5,1.82,2.8,1.83,3.5,0,7,.22,10.48-.05s3.36,1.59,3.26,4c-.08,2.15.5,4.42-3.07,4.15-3.31-.26-6.66.06-10-.1-2.43-.11-3.61.38-3.57,3.21s1.3,2.92,3.4,2.86c3.49-.1,7,.14,10.49-.08,3.13-.19,4.69.25,4.74,4.12,0,4.15-2,4-4.89,4-6.49-.12-13-.31-19.47.06-3.94.22-4.83-1.19-4.56-4.78C769.33,410.24,769.09,406.06,769.09,401.9Z"/><path class="cls-1" d="M1186,402.2c0-4.66.1-9.33,0-14-.07-2.32.59-3.23,3.06-3.19,7.49.14,15,.17,22.48,0,3.47-.08,2.6,2.23,2.57,4s1,4.23-2.51,4.06a106,106,0,0,0-11,0c-1.49.08-4.11-1.38-4.19,1.79-.09,3.59,2.82,1.89,4.42,2.07a38.25,38.25,0,0,0,7.49,0c3.19-.29,4.62.34,4.69,4.15.07,4.19-2,4.05-4.9,3.92-2.66-.12-5.33,0-8,0-2,0-3.83-.34-3.89,2.87-.06,3.46,1.86,3.19,4.11,3.16,3.83-.06,7.67.15,11.49-.07s2.76,2.33,2.88,4.32.23,3.87-2.92,3.79c-7.65-.19-15.32-.12-23,0-2.21,0-2.88-.77-2.82-2.91C1186.12,411.52,1186,406.86,1186,402.2Z"/><path class="cls-1" d="M983.58,397.36c0,2.83.1,5.66,0,8.48-.4,8.6-5.1,13.44-13.66,14.17-13,1.11-18.93-4.34-19-17.41,0-4.66.29-9.33-.08-14s2.72-3.6,5.14-3.52,5.55-1.43,5.26,3.34c-.31,5.3-.11,10.63-.06,16,.06,5.57,1.85,7.71,6.21,7.65,5-.07,5.91-3.29,5.84-7.41-.08-5.32.26-10.66-.09-15.95-.35-5.12,3.16-3.4,5.6-3.61,2.73-.24,5.43-.52,4.9,3.8A70.35,70.35,0,0,0,983.58,397.36Z"/><path class="cls-1" d="M625.23,397.51c0,2.83.08,5.65,0,8.48-.3,8-4.38,13-12.26,13.79-13.29,1.4-20.7-3.15-20.29-16.84.15-5,.16-10,0-15-.16-4.63,3.24-2.74,5.2-2.8s5.31-1.62,5.13,2.94c-.21,5.64-.11,11.29,0,16.94.08,5.06,2,7.13,6.32,7,4.64-.14,5.76-3.06,5.72-7.05-.07-5.65.12-11.31-.06-16.95-.15-4.59,3.18-2.89,5.18-2.88s5.41-1.75,5.14,2.86C625.08,391.19,625.23,394.35,625.23,397.51Z"/><path class="cls-1" d="M499.83,384.07c8.05,0,12.57,2.46,14.24,7,.83,2.24.54,3.43-2.14,3.47-3.08.05-6.52,1.78-8.29-2.71-.5-1.27-2.47-1.63-4-1.52s-3.11.57-3.51,2.27c-.54,2.31,1.46,2.78,3,3.27,2.52.81,5.17,1.25,7.69,2.05,6.68,2.12,9.39,5.36,9.18,10.75-.22,5.65-3.86,9.46-10.47,10.93-8.15,1.82-15.84-.56-18.53-6-.8-1.62-3.31-4.46-.37-5.27,2.61-.72,6.71-3.68,8.91,1.24,1,2.16,2.34,3.61,4.81,3.72s5,0,5.56-2.94c.52-2.71-1.57-3.72-3.82-4.35-2.55-.72-5.15-1.34-7.64-2.25-5.67-2.05-8.25-5.51-7.84-10.18s3.5-7.65,9.35-8.9A38.38,38.38,0,0,1,499.83,384.07Z"/><path class="cls-1" d="M819.26,420.06c-9.41,0-14.06-2.56-16.17-8-1-2.58-1.19-4.37,2.51-4.44,3.18-.07,6.23-1.44,7.79,3.32,1,3.08,4.64,2.75,7.46,1.82a3,3,0,0,0,2-3.13,3.57,3.57,0,0,0-2.66-3.29c-3.3-1.13-6.7-1.95-10-3.15-4.28-1.57-7.06-4.5-6.76-9.36s3.41-7.67,8.06-8.91a21.62,21.62,0,0,1,14.64.9,8.16,8.16,0,0,1,2.79,2c1.48,1.73,3.19,3.72,2,6.07-.81,1.61-8.31,1-9.26-.65a5.4,5.4,0,0,0-3.86-2.86c-2.11-.37-4.28-.05-4.84,2.34-.5,2.2,1.63,2.67,3.16,3.13,3,.92,6.16,1.43,9.12,2.49,4.59,1.63,7.65,4.65,7.58,9.95A11.14,11.14,0,0,1,824.66,419,44.6,44.6,0,0,1,819.26,420.06Z"/><path class="cls-1" d="M1006.21,420.05c-9.74,0-14.67-3-16.47-8.91-.71-2.34-.26-3.4,2.29-3.44,3.18-.05,6.64-2.05,8.3,3.18,1,3.1,4.62,2.78,7.45,1.88a3,3,0,0,0,2.1-3.11,3.55,3.55,0,0,0-2.63-3.31c-3.29-1.13-6.69-1.95-10-3.15-4.28-1.56-7.08-4.47-6.81-9.33.28-5,3.37-7.68,8-9a23.33,23.33,0,0,1,12.81.13,8.19,8.19,0,0,1,5,3.15c1.12,1.75,3.85,4.49,1.29,5.68-2.3,1.06-6.31,3.23-8.81-.58a5.81,5.81,0,0,0-4.33-3c-1.92-.21-3.9.2-4.38,2.36s1.57,2.7,3.1,3.17c3,.92,6.16,1.43,9.13,2.48,5.4,1.91,7.86,5.47,7.61,10.42s-3.45,8.91-8.66,10.35A46.08,46.08,0,0,1,1006.21,420.05Z"/><path class="cls-1" d="M1234.8,420.06c-8.25-.06-12.82-2.7-14.86-8.25-.89-2.42-1-4,2.34-4.19s6.49-1.36,8.19,3.5c1,2.93,4.71,2.6,7.52,1.5a2.93,2.93,0,0,0,1.85-2.76,3.37,3.37,0,0,0-2.44-3.42c-3-1-6.08-1.68-9.05-2.74-5.68-2-8.29-5.48-7.92-10.14s3.44-7.76,9.29-8.93,11.4-1.11,16,3.05c1.68,1.52,3.82,3.78,2,6.34-1.23,1.73-8,.82-9.18-1a5.44,5.44,0,0,0-3.51-2.58c-2.09-.46-4.29-.26-5,2.05-.77,2.54,1.65,2.9,3.3,3.42,3,.93,6.16,1.45,9.11,2.52,4.62,1.68,7.53,4.83,7.35,10.1a11.2,11.2,0,0,1-8,10.4A18.12,18.12,0,0,1,1234.8,420.06Z"/><path class="cls-1" d="M641.71,401.53c.11,1.92.11,2.92.22,3.91.35,3.2,1.51,5.9,5.06,6.53s6.23-.46,7.68-4c2.17-5.25,5.31-.85,7.73-.46,3.33.54,1.33,3.09.57,4.64-4.93,10.17-22,10.73-28.54,1-4.14-6.16-3.91-17.46.47-23.17,4.06-5.29,12.3-7.32,20.05-5a10.64,10.64,0,0,1,5.45,3.32c1.52,1.91,4.72,4.74,2.57,6.3s-6,4.24-9.35-.36c-3.07-4.25-9.37-2.76-11.11,2.27A24.41,24.41,0,0,0,641.71,401.53Z"/><path class="cls-1" d="M1039.15,385.07c4.15,0,8.32.19,12.45-.06,3-.19,3.77,1,3.48,3.68-.23,2.17.74,4.5-3.21,4.49-7.7,0-7.7.24-7.7,7.8,0,4.82-.31,9.66.09,14.45.34,4-2,3.92-4.54,3.59-2.32-.3-6,1.8-5.74-3.43.3-5.47-.29-11,.18-16.44.43-5-1-7.11-6.12-6.08-4.58.92-5.17-1.55-4.9-5.32.15-2.29,1.05-2.75,3.05-2.71C1030.5,385.14,1034.83,385.07,1039.15,385.07Z"/><path class="cls-1" d="M575.45,418.69c-4.3,0-10.06,1.69-12.5-.43-2.88-2.51-.79-8.41-.92-12.84-.17-5.48.12-11-.11-16.46-.12-3,.61-4,3.81-4,6.51.13,6.51-.07,6.51,6.65,0,5,.29,10-.09,15-.31,4,1.2,4.94,4.78,4.52,2.3-.27,4.69.23,7-.11,4.47-.68,5.32,1.39,5,5.3-.19,2.22-.9,2.86-3,2.79-3.48-.12-7,0-10.47,0Z"/><path class="cls-1" d="M1166.4,419.06c-3.5-.42-9.06,1.89-11.7-.84s-.67-8.21-.77-12.49c-.13-5.81.15-11.64-.08-17.46-.2-4.92,3.33-3,5.49-3.12s5.11-1.24,4.89,3.18c-.31,6.31.1,12.64-.15,18.95-.13,3.18.94,4.08,4,3.83s6,.18,9-.11c3.27-.32,3.88,1.08,3.8,4-.07,2.69-.18,4.46-3.66,4.14C1173.84,418.81,1170.49,419.06,1166.4,419.06Z"/><path class="cls-1" d="M855.08,402c0-4.65.09-9.3,0-13.95-.13-5,3.61-2.57,5.69-2.89s4.65-1,4.54,3c-.26,9.3-.21,18.61,0,27.91.1,4.6-3.14,2.83-5.14,2.89s-5.31,1.5-5.09-3S855.07,406.65,855.08,402Z"/><path class="cls-1" d="M1108.58,402.06c0,4.65-.11,9.31,0,14,.14,5-3.54,2.71-5.65,3s-4.73,1.16-4.63-2.94q.35-13.95,0-27.92c-.1-4.1,2.59-3.2,4.62-3s5.8-2,5.66,3C1108.48,392.75,1108.58,397.4,1108.58,402.06Z"/><path class="cls-1" d="M680.79,402.08c0,4.65-.1,9.3,0,13.95.15,5-3.54,2.68-5.64,2.94s-4.69,1.11-4.58-3c.24-9.29.22-18.6,0-27.9-.1-4.58,3.08-2.93,5.1-2.94s5.34-1.58,5.13,3S680.79,397.42,680.79,402.08Z"/><path class="cls-1" d="M1267.74,354.42c2.93,1.53,5.9,3,8.77,4.65a1.18,1.18,0,0,1-.16,2.07c-2.69,1.65-5.43,3.21-8.16,4.78a1.37,1.37,0,0,1-1,.17c-4.5-1.56-1.12-5.42-2.25-8.06C1264.15,356.12,1265.32,354.52,1267.74,354.42Z"/><path class="cls-1" d="M1239,337.18l-.18,2.48c-11-.05-22-.21-33-.08-2.83,0-4.09-.92-5.06-3.51-3.88-10.43-8.1-20.73-11.94-31.18-1.1-3-2.6-4-5.77-3.95q-30.48.21-61,0c-3.17,0-4.69,1-5.74,4-3.54,10.19-7.47,20.25-11.05,30.43-1.08,3.07-2.49,4.39-6,4.26-8.65-.34-17.32-.12-26-.11-6,0-6,0-3.88-5.4q16.29-41.55,32.61-83.08c10.39-26.44,20.86-52.85,31.12-79.34,1.24-3.18,2.78-4.3,6.17-4.21,8.82.24,17.65.19,26.47,0,3.14-.06,4.64,1,5.84,4q33,82.08,66.22,164.07A8.5,8.5,0,0,0,1239,337.18ZM1150.24,213c-6.83,18.54-13.6,37.09-20.5,55.59-.91,2.43,0,3,2,3q20.48,0,41,0c2.14,0,3-.83,2.06-3.11-1.47-3.52-2.72-7.12-4.07-10.69q-9-23.75-18-47.4C1151,210.74,1150.64,211.87,1150.24,213Z"/><path class="cls-1" d="M1075.19,398.11c-1.79-.37-4.56,1.16-4.4-2.74.15-3.58,2.69-2.21,4.31-2.24,2.13,0,5.51-1,5.57,2.31S1077.4,397.86,1075.19,398.11Z"/><path class="cls-1" d="M555.63,402.63c-.37,11.28-7,17.71-18,17.43s-17.73-7.47-17.27-18.79c.46-11.07,7.4-17.57,18.38-17.2S556,391.43,555.63,402.63Zm-10.5-3.72c-.6-4.09-2.59-6.79-7.1-6.84s-6.56,2.62-7.16,6.72a18.62,18.62,0,0,0,.39,8.4,7.07,7.07,0,0,0,10.92,3.74c3-2.12,2.9-5.39,3.15-8.71C545.27,401.22,545.29,400.05,545.13,398.91Z"/><path class="cls-1" d="M722.92,401.67c.09,11.47-6.19,18.24-17.08,18.39-11.39.15-18.11-6.44-18.17-17.83s6.44-18,17.37-18.16C716.16,384,722.82,390.51,722.92,401.67ZM704,412c2.76.37,5.61.05,7-2.63a15.15,15.15,0,0,0,.34-13.94c-1.36-2.92-4.12-3.64-7.17-3.34a6.22,6.22,0,0,0-5.27,4,14.33,14.33,0,0,0-1,5.87C697.88,408,699.89,411.46,704,412Z"/><path class="cls-1" d="M923.79,385.07h4c11.69.05,17.1,5.46,17.1,17.1,0,11.33-5.38,16.79-16.83,16.86-4.62,0-10.66,1.51-13.48-.8s-.75-8.7-.9-13.29c-.16-5,.18-10-.1-15-.21-3.67.57-5.63,4.74-5A34.52,34.52,0,0,0,923.79,385.07ZM934,397.42c-1.13-4.09-4.4-4.57-7.91-4.33-4.18.29-1.81,3.52-2.11,5.37a30.93,30.93,0,0,0-.05,7.45c.13,1.68-1.13,4.23,1,4.88,2.42.75,5.34.91,7.57-1.07s2.08-4.74,2.25-8A35,35,0,0,0,934,397.42Z"/><path class="cls-1" d="M1150.17,419.06c-3.13,0-5.46-.13-7.77,0s-3.5-.55-3.76-2.84c-.3-2.7-1.89-3.6-4.46-3.2-3.91.62-9.37-2.35-10.35,4.88-.26,1.92-2.52,1-3.88,1.09-2,.14-4,0-6.78,0l7.69-20.7c.86-2.34,2.05-4.62,2.54-7,1-5.13,3.76-6.71,9-6.47,4,.18,5.72,1.3,7,5C1142.65,399.48,1146.38,408.89,1150.17,419.06ZM1131,394.52c-1,3.39-2,6.78-3.12,10.38h7.55l-3.4-10.52Z"/></svg>