<svg id="Capa_1" data-name="Capa 1" xmlns="http://www.w3.org/2000/svg" viewBox="0 0 984.15 389.81"><path d="M269.57,290.54c1.86,7.34,3.6,14.2,5.33,21.07.63,2.47.11,4-2.33,5.68A153.24,153.24,0,0,1,247,331.83c-1.61.69-2-.16-2.81-1-3.31-3.26-7.25-6.05-9.9-9.76-4.06-5.68-9-6.37-15-4.53-3.64,1.11-7.07,3-11.05,2.85-1.75-.05-2,1.38-2.3,2.73-1.34,5.47-3,10.88-4,16.41-.87,4.69-2.37,7.23-7.94,6.87-8.46-.56-17-.25-25.48-.11-2.95.05-3.77-1-4.33-3.91-1.25-6.48-3.25-12.82-4.94-19.21-.35-1.31-.75-2.45-2.39-2.83-5.62-1.33-11.24-2.66-16.79-4.27-2.09-.61-3.12.42-4.29,1.59-3.65,3.61-7.8,6.88-10.79,11-3.71,5.09-7.52,4.37-12.07,1.91-7.4-4-14.53-8.4-21.52-13.07-1.77-1.18-1.3-2.3-1.21-3.77.44-6.87,4.08-12.93,4.94-19.73.25-2,.53-3.75-1-4.95-4.21-3.2-7.36-7.4-11-11.1a4.29,4.29,0,0,0-4.51-1.23c-5.92,1.51-12,2.47-17.78,4.38-3.32,1.09-5.34.51-7.11-2.11a249.15,249.15,0,0,1-14.46-25.25,2.13,2.13,0,0,1,.54-2.95c4.69-4.67,9-9.71,13.95-14.11,2.78-2.49,3-4.76,1.88-7.91C54.1,223.57,52,219.55,52,214.87c0-2.85-2.6-4-4.9-4.16-6.19-.57-11.61-4-17.8-4.49-2.14-.16-2.92-1.65-3.26-3.73-1.42-8.79-1.12-17.62-.57-26.42.38-6,3.13-8.12,10.46-9.34a48.06,48.06,0,0,0,5.39-.88c6.29-1.77,10.73-4.06,12.13-12.19,2.13-12.4,3.22-12.18-6.09-20.62-2.66-2.41-5.11-5-7.69-7.55-1-1-1.44-1.79-.62-3.39,4.49-8.78,9-17.49,14.73-25.61C56,93.3,58.61,93,61.49,94.4c5.45,2.69,11.54,2.91,17.14,4.91,2,.73,3.08-.36,4.25-1.62,2.28-2.43,4.26-5.37,7-7.08,6.78-4.26,5.2-9.91,3.58-15.86-1.17-4.31-3.24-8.36-3.34-13,0-1.9.28-3.12,1.9-4.15,8.09-5.17,16.22-10.27,25-14.29,2-.9,3.43-.82,5.18,1.13,4.48,5,9.43,9.54,14.11,14.35,1.17,1.19,2.16,1.84,3.87,1.05a46.66,46.66,0,0,1,13.37-3.79c4.44-.6,6.46-3.3,6.7-7.31.36-5.91,4.11-10.86,4.36-16.81.1-2.35,2.7-2,4.43-2.3a106.44,106.44,0,0,1,26.87-.22c3.74.4,5.14,2.13,5.87,5.42,1.22,5.48,2.77,10.89,4,16.38a5.33,5.33,0,0,0,4.62,4.51c5,1.07,10.16,1.77,14.77,4.19,2,1.07,3-.18,4.24-1.37,4.79-4.76,9.72-9.38,14.32-14.31,1.83-1.95,3.32-1.58,5.26-.69,8.33,3.79,16,8.79,23.73,13.55,2.25,1.37,3.16,3.14,2.42,5.86-1.56,5.75-3.08,11.53-4.26,17.36-.71,3.47-2.36,3.31-4.75,2a116.66,116.66,0,0,0-19.54-8.47c-20.45-6.87-41-8.75-62.28-3.54-13.79,3.38-26.7,8.33-38.72,15.92a121,121,0,0,0-30.29,27.56A119.39,119.39,0,0,0,98,144a116,116,0,0,0-7.63,31.79,110.5,110.5,0,0,0,2.27,35.67c2.64,11.37,6,22.34,11.39,32.57a119.55,119.55,0,0,0,28.88,35.63,122.64,122.64,0,0,0,35.78,20.73,110.8,110.8,0,0,0,39,6.81A116.11,116.11,0,0,0,269.57,290.54Z" fill="#004670"/><path d="M896.43,272.19c-6.44-5-14.06-6.16-19.88-11.36a24.84,24.84,0,0,1,14.4,1.52c6.38,2.49,13.22,3.14,19.64,5.49,3.94,1.44,2.6-1.89,2.2-3.38-1.65-6.08-3.56-12.09-5.39-18.13a7.73,7.73,0,0,1-.33-4.69c4.1,7.59,8.21,15.18,13,24L943,224.5l1,.34c-1.49,4.83-2.89,9.69-4.5,14.47-3,8.78-6,17.51-9.08,26.27-.33.93-.81,2,.24,2.69a3.8,3.8,0,0,0,3.37,0c5.16-1.81,10.29-3.66,15.44-5.48,1.61-.56,3.16-1.73,5.81-.42-6.41,3.52-12.25,6.81-18.18,9.94-1.49.78-3.53,1.31-3.8,2.92-.33,2,2.11,1.66,3.29,2.27q16.7,8.67,33.54,17a11.14,11.14,0,0,1,4.27,3c-15.65-4-30.63-8.52-46.16-11.79,1.07,8.18,4.25,15.49,6.52,24.16-4.7-2.89-5.25-7.14-7.06-10.35-1.39-2.48-3.4-4.88-3.88-8a3.66,3.66,0,0,0-2.29-2.42c-1.41-.31-1.55,1.43-2.08,2.39-7.18,12.76-14.33,25.53-22.3,38,1.32-4.23,2.63-8.46,4-12.68,3.09-9.59,6.22-19.18,9.32-28.77.29-.91,1.07-1.92.27-2.79-1-1.13-2.19,0-3.19.28-7.69,2.42-15.35,4.94-24.28,7.84,4.79-4.4,10.5-5.15,15.21-10h-7.88q-293.19,0-586.37.11c-4.94,0-6.51-1-6.41-6.21.12-5.87,3.88-4.3,6.81-4.3Q596.79,273,889,273C891.2,273,893.53,273.41,896.43,272.19Zm2.86,11.08c3.53-.21,5.48-3.2,8.46-4.17,1.26-.41.32-2-.66-2.05-2.89-.26-4.93-4.28-7.44-2.86-1.94,1.1,0,4.62-.56,7A6.85,6.85,0,0,0,899.29,283.27Z" fill="#fe0000"/><text transform="translate(160.56 262.65)" font-size="185" fill="#00385b" font-family="Arial-BoldMT, Arial" font-weight="700"><tspan xml:space="preserve">IN   XS</tspan><tspan x="585.98" y="0" letter-spacing="-0.04em">A</tspan></text><text transform="translate(297.79 323.77)" font-size="37" fill="#00385b" font-family="Arial-Black, Arial" font-weight="800">SO<tspan x="57.54" y="0" letter-spacing="-0.03em">L</tspan><tspan x="81.26" y="0">UCIONES INDUSTRIALES</tspan></text><path d="M413.88,266.45c-15.39-1-28-6.49-38.12-17.32-12.52-13.43-17.89-29.79-18.68-47.83-.85-19.56,3.54-37.67,15.69-53.4,9-11.6,20.87-18.4,35.32-20.76,1.69-.28,3.43-.26,5.76-.42,0,8.05,0,15.72-.08,23.4,0,.7-1.08,1.74-1.87,2-19.15,7-31.37,30-25.3,56.34a98.23,98.23,0,0,0,5.45,16.11c3.52,8.32,10.34,13.08,18.63,16.1,1.29.47,3,2.07,3.06,3.2C414,251.17,413.88,258.45,413.88,266.45Z" fill="#b2b3b7"/><path d="M431.56,126.78c19.3,1.77,33.9,10.26,44.52,25.57,19.18,27.66,16.46,71.1-6,96.18-9.52,10.65-24.49,17.74-38.52,18,0-7.84,0-15.68.08-23.52a2.9,2.9,0,0,1,1.76-2c14.26-4.12,21-14.22,24.23-28.16s3.36-27-2.72-40c-4.55-9.73-10.86-17.55-21.31-21.39a3.75,3.75,0,0,1-2-2.75C431.48,141.58,431.56,134.46,431.56,126.78Z" fill="#00385b"/></svg>